<?xml version="1.0" encoding="utf-8"?><svg width="170" height="168" viewBox="0 0 170 168" xmlns="http://www.w3.org/2000/svg" xmlns:xlink="http://www.w3.org/1999/xlink"><svg version="1.1" id="Activity" x="36" y="36" viewBox="0 0 26 26" xml:space="preserve" width="26" height="26" xmlns="http://www.w3.org/2000/svg"><style>.aast3{fill:none;stroke:#000;stroke-width:1.5;stroke-linecap:round;stroke-linejoin:round;stroke-miterlimit:10}</style><ellipse class="aast3" cx="13" cy="13" rx="11.87" ry="11.86"/><path class="aast3" d="M4.8 14.11h2.05c1.91 0 1.74-1.55 3.14-7.98a.43.43 0 01.42-.33c.2 0 .38.14.42.33l2.64 12.37c.04.19.21.33.42.33.2 0 .38-.13.43-.32l1.82-7.28c.04-.18.2-.3.39-.32.19-.01.36.09.43.26.64 1.54.9 2.93 2.39 2.93h1.85"/></svg><svg version="1.1" id="CO2e" y="36" viewBox="0 0 36 36" xml:space="preserve" width="36" height="36" xmlns="http://www.w3.org/2000/svg"><style>.abst0,.abst1{stroke:#000;stroke-width:1.5;stroke-linejoin:round;stroke-miterlimit:10}.abst0{fill:none}.abst1{stroke-linecap:round}.abst1,.abst2{fill:none}</style><path class="abst0" d="M17.68 2.96v30c-8.28 0-15-6.72-15-15s6.72-15 15-15z"/><path class="abst0" d="M17.68 32.96c-4.52 0-8.18-6.71-8.18-15s3.66-15 8.18-15M17.68 11.51H4.14M17.68 24.4H4.14"/><path class="abst1" d="M22.7 27.77c0-6.71 2.12-12.14 4.75-12.14M30.4 20.44c-2.23 2.23-4.96 1.26-7.18-.96-2.23-2.23-3.1-4.87-.88-7.1 2.23-2.23 8.91-5.51 10.49-3.92 1.31 1.3-.2 9.75-2.43 11.98z"/><path class="abst2" d="M0 0h36v36H0z"/></svg><svg version="1.1" id="GO" viewBox="0 0 36 36" xml:space="preserve" width="36" height="36" xmlns="http://www.w3.org/2000/svg"><style>.acst1{stroke:#000;stroke-width:1.5;stroke-linecap:round;stroke-linejoin:round;stroke-miterlimit:10}.acst1,.acst2{fill:none}</style><circle class="acst1" cx="25.88" cy="25.88" r="9"/><path class="acst1" d="M5.62 10.12h15.76M5.62 16.88h9M5.62 23.62h5.63M11.25 30.38H3.38c-1.24 0-2.25-1.01-2.25-2.25V3.38c0-1.24 1.01-2.25 2.25-2.25h15.94c.6 0 1.17.24 1.59.66l4.31 4.31c.42.42.66.99.66 1.59v4.69"/><path class="acst2" d="M0 0h36v36H0z"/><g><path class="acst1" d="M27.25 21c-2.76 0-5 2.24-5 5s2.24 5 5 5M26.25 27.67h-5.5M26.25 24.33h-5.5"/></g></svg><svg viewBox="0 0 36 36" width="36" height="36" id="REC" x="36" xmlns="http://www.w3.org/2000/svg"><g fill="none"><g stroke="#000" stroke-linecap="round" stroke-linejoin="round" stroke-miterlimit="10" stroke-width="1.5"><path d="M28.12 21.38h-3.05c-.96 0-1.79.68-1.98 1.63-.18.95.33 1.89 1.23 2.25l3.1 1.24c.89.36 1.41 1.3 1.23 2.25s-1.01 1.63-1.98 1.63h-3.05M25.88 21.38v-1.13M25.88 31.5v-1.12"/><circle cx="25.88" cy="25.88" r="9"/><path d="M5.62 10.12h15.76M5.62 16.88h9M5.62 23.62h5.63M11.25 30.38H3.38c-1.24 0-2.25-1.01-2.25-2.25V3.38c0-1.24 1.01-2.25 2.25-2.25h15.94c.6 0 1.17.24 1.59.66l4.31 4.31c.42.42.66.99.66 1.59v4.69"/></g><path d="M0 0h36v36H0z"/></g></svg><svg viewBox="0 0 24 24" width="24" height="24" id="Scale" x="122" xmlns="http://www.w3.org/2000/svg"><style>.aest0{fill:none;stroke:#000;stroke-linecap:round;stroke-miterlimit:10}</style><g id="aeLayer_1"><path class="aest0" d="M12.43 22V2M2.41 8.83L20.54 2M7.18 22h10.5M.5 16.15h9.54M.98 16.15l4.29-8.32M9.57 16.15l-4.3-8.32M2.5 16.15v.42c0 1.62 1.28 2.93 2.86 2.93s2.86-1.31 2.86-2.93v-.42M13.96 11h9.54M14.43 11l4.3-8.31M23.02 11l-4.29-8.31M15.96 11v.42c0 1.62 1.28 2.93 2.86 2.93 1.58 0 2.86-1.31 2.86-2.93V11"/></g></svg><svg viewBox="0 0 24 24" width="24" height="24" id="Scale-nav" x="72" y="26" xmlns="http://www.w3.org/2000/svg"><style>.afst0{fill:none;stroke:#000;stroke-linecap:round;stroke-miterlimit:10}</style><g id="afLayer_1"><path class="afst0" d="M12.43 22V2M2.41 8.83L20.54 2M7.18 22h10.5M.5 16.15h9.54M.98 16.15l4.29-8.32M9.57 16.15l-4.3-8.32M2.5 16.15v.42c0 1.62 1.28 2.93 2.86 2.93s2.86-1.31 2.86-2.93v-.42M13.96 11h9.54M14.43 11l4.3-8.31M23.02 11l-4.29-8.31M15.96 11v.42c0 1.62 1.28 2.93 2.86 2.93 1.58 0 2.86-1.31 2.86-2.93V11"/></g></svg><svg viewBox="0 0 26 26" width="26" height="26" id="User" x="72" xmlns="http://www.w3.org/2000/svg"><g fill="none" stroke="#000" stroke-width="1.5" stroke-linecap="round" stroke-linejoin="round" stroke-miterlimit="10"><ellipse cx="13" cy="13" rx="11.87" ry="11.86"/><path d="M5.13 18.16c1.59-.91 3.29-1.63 5.05-2.16.78-.28.87-2.05.31-2.66C9.68 12.47 9 11.44 9 8.96c-.1-1 .25-1.99.94-2.72.7-.73 1.68-1.14 2.69-1.11 1.02-.03 2 .38 2.69 1.11.7.73 1.04 1.72.94 2.72 0 2.48-.68 3.5-1.49 4.38-.56.61-.47 2.37.31 2.66 1.76.53 3.46 1.25 5.05 2.16"/></g></svg><svg version="1.1" id="Wind" x="24" y="72" viewBox="0 0 24 24" xml:space="preserve" width="24" height="24" xmlns="http://www.w3.org/2000/svg"><style>.ahst0{fill:none;stroke:#000;stroke-linecap:round;stroke-linejoin:round;stroke-miterlimit:10}</style><circle class="ahst0" cx="12.05" cy="13.03" r="2"/><path class="ahst0" d="M8.05 15.03s-2.33 2.67-7 8M10.05 16.03s-3 2.33-9 7M16.05 15.03s2.33 2.67 7 8M14.05 16.03s3 2.33 9 7M11.05 9.03l1-8 1 8"/></svg><svg version="1.1" id="Wind-nav" x="48" y="72" viewBox="0 0 24 24" xml:space="preserve" width="24" height="24" xmlns="http://www.w3.org/2000/svg"><style>.aist0{fill:none;stroke:#000;stroke-linecap:round;stroke-linejoin:round;stroke-miterlimit:10}</style><circle class="aist0" cx="12.05" cy="13.03" r="2"/><path class="aist0" d="M8.05 15.03s-2.33 2.67-7 8M10.05 16.03s-3 2.33-9 7M16.05 15.03s2.33 2.67 7 8M14.05 16.03s3 2.33 9 7M11.05 9.03l1-8 1 8"/></svg><svg viewBox="0 0 24 24" width="24" height="24" id="add" x="72" y="72" xmlns="http://www.w3.org/2000/svg"><defs><style>.aja{fill:none;stroke:currentColor;stroke-linecap:round;stroke-linejoin:round;stroke-width:1.5px}</style></defs><path class="aja" d="M.75 12h22.5M12 .75v22.5"/></svg><svg viewBox="0 0 24 24" width="24" height="24" id="alarm-bell" x="98" xmlns="http://www.w3.org/2000/svg"><defs><style>.aka{fill:none;stroke:currentColor;stroke-linecap:round;stroke-linejoin:round}</style></defs><path class="aka" d="M20.5 17.5V11a8.5 8.5 0 00-5.541-7.959 3 3 0 00-5.922 0A8.493 8.493 0 003.5 11v6.5a3 3 0 01-3 3h23a3 3 0 01-3-3zM15 20.5a3 3 0 11-6 0"/></svg><svg viewBox="0 0 24 24" width="24" height="24" id="alert-circle" x="98" y="24" xmlns="http://www.w3.org/2000/svg"><defs><style>.ala{fill:none;stroke:currentColor;stroke-linecap:round;stroke-linejoin:round}</style></defs><path class="ala" d="M23 11.811A11.162 11.162 0 0112 23 10.837 10.837 0 011 12.192 11.162 11.162 0 0112 1a10.838 10.838 0 0111 10.811zM12 14.005v-7"/><path class="ala" d="M11.991 16.005a.245.245 0 00-.241.255.254.254 0 00.253.245.246.246 0 00.241-.255.253.253 0 00-.244-.245h-.005"/></svg><svg version="1.1" id="arrow-down" x="98" y="48" viewBox="0 0 24 24" xml:space="preserve" width="24" height="24" xmlns="http://www.w3.org/2000/svg"><style>.amst0{clip-path:url(#amSVGID_2_);fill:none;stroke:#000;stroke-linecap:round;stroke-linejoin:round;stroke-miterlimit:10}</style><defs><path id="amSVGID_1_" d="M0 0h24v24H0z"/></defs><clipPath id="amSVGID_2_"><use xlink:href="#amSVGID_1_" overflow="visible"/></clipPath><path class="amst0" d="M.54 5.63L11.67 18.2c.2.23.55.23.75 0L23.54 5.63"/></svg><svg id="arrow-right" data-name="Layer 1" viewBox="0 0 24 24" width="24" height="24" x="98" y="72" xmlns="http://www.w3.org/2000/svg"><defs><clipPath id="anclip-path"><path class="ancls-1" d="M0 0h24v24H0z"/></clipPath><style>.ancls-1,.ancls-3{fill:none}.ancls-2{clip-path:url(#anclip-path)}.ancls-3{stroke:#000;stroke-linecap:round;stroke-linejoin:round}</style></defs><g class="ancls-2"><path class="ancls-3" d="M5.63 23.46L18.2 12.33a.49.49 0 000-.75L5.63.46"/></g></svg><svg viewBox="0 0 24 24" width="24" height="24" id="attachment" y="96" xmlns="http://www.w3.org/2000/svg"><defs><style>.aoa{fill:none;stroke:currentColor;stroke-linecap:round;stroke-linejoin:round}</style></defs><path class="aoa" d="M7.618 15.345l8.666-8.666a2.039 2.039 0 112.883 2.883L7.461 21.305a4.078 4.078 0 01-5.767-5.768L13.928 3.305a5.606 5.606 0 017.929 7.928L13.192 19.9"/></svg><svg viewBox="0 0 24 24" width="24" height="24" id="attachment-nav" x="24" y="96" xmlns="http://www.w3.org/2000/svg"><defs><style>.apa{fill:none;stroke:currentColor;stroke-linecap:round;stroke-linejoin:round}</style></defs><path class="apa" d="M7.618 15.345l8.666-8.666a2.039 2.039 0 112.883 2.883L7.461 21.305a4.078 4.078 0 01-5.767-5.768L13.928 3.305a5.606 5.606 0 017.929 7.928L13.192 19.9"/></svg><svg version="1.1" id="back-arrow" x="72" y="50" viewBox="0 0 16 16" xml:space="preserve" width="16" height="16" xmlns="http://www.w3.org/2000/svg"><style>.aqst0{stroke:#000;stroke-width:1.25;stroke-linecap:round;stroke-linejoin:round;stroke-miterlimit:10}.aqst0,.aqst1{fill:none}</style><path class="aqst0" d="M15 7.97H1M7 1.97l-6 6 6 6"/><path class="aqst1" d="M0-.03h16v16H0z"/></svg><svg viewBox="0 0 24 24" width="24" height="24" id="binocular" x="72" y="96" xmlns="http://www.w3.org/2000/svg"><defs><style>.ara{fill:none;stroke:currentColor;stroke-linecap:round;stroke-linejoin:round}</style></defs><circle class="ara" cx="5.5" cy="18.5" r="5"/><path class="ara" d="M10.5 7V3a2.281 2.281 0 00-3 0L6 7 4.5 8.5l-3 7"/><circle class="ara" cx="18.5" cy="18.5" r="5"/><path class="ara" d="M13.5 7V3.063a2.281 2.281 0 013 0L18 7l1.5 1.5 3 7M8 11c0-1.1 1.791-2 4-2s4 .895 4 2M10.5 18.5V9.145M13.5 18.5V9.145"/></svg><svg viewBox="0 0 24 24" width="24" height="24" id="button-refresh-arrows" x="96" y="96" xmlns="http://www.w3.org/2000/svg"><defs><style>.asa{fill:none;stroke:currentColor;stroke-linecap:round;stroke-linejoin:round}</style></defs><path class="asa" d="M5.5 18.928A9.5 9.5 0 0117.061 3.956M18.5 9.498v-4.5H23"/><path class="asa" d="M5.5 14.498v4.5H1M18.5 5.071A9.5 9.5 0 016.883 20.006"/></svg><svg viewBox="0 0 24 24" width="24" height="24" id="check-1" y="144" xmlns="http://www.w3.org/2000/svg"><defs><style>.ata{fill:none;stroke:currentColor;stroke-linecap:round;stroke-linejoin:round}</style></defs><path class="ata" d="M23.5.499l-16.5 23-6.5-6.5"/></svg><svg viewBox="0 0 24 24" width="24" height="24" id="check-badge" x="122" y="24" xmlns="http://www.w3.org/2000/svg"><defs><style>.aua{fill:none;stroke:currentColor;stroke-linecap:round;stroke-linejoin:round}</style></defs><path class="aua" d="M16 9.5l-4.07 5.426a.767.767 0 01-1.155.083l-2.442-2.443"/><path class="aua" d="M10.7 1.121a1.665 1.665 0 012.6 0l1.545 1.923a1.665 1.665 0 001.479.612l2.452-.267a1.667 1.667 0 011.834 1.837l-.267 2.451a1.666 1.666 0 00.613 1.479l1.922 1.544a1.666 1.666 0 010 2.6l-1.922 1.545a1.664 1.664 0 00-.613 1.478l.267 2.452a1.665 1.665 0 01-1.836 1.836l-2.452-.267a1.668 1.668 0 00-1.479.613l-1.543 1.92a1.665 1.665 0 01-2.6 0l-1.543-1.922a1.668 1.668 0 00-1.479-.613l-2.452.267a1.665 1.665 0 01-1.836-1.836l.267-2.452a1.664 1.664 0 00-.613-1.478L1.122 13.3a1.666 1.666 0 010-2.6l1.922-1.544a1.666 1.666 0 00.613-1.479L3.39 5.226a1.667 1.667 0 011.836-1.837l2.452.267a1.665 1.665 0 001.479-.612z"/></svg><svg viewBox="0 0 24 24" width="24" height="24" id="checklist-pen" x="122" y="48" xmlns="http://www.w3.org/2000/svg"><defs><style>.ava{fill:none;stroke:currentColor;stroke-linecap:round;stroke-linejoin:round}</style></defs><path class="ava" d="M7 4.999l-3 3-1.5-1.5M7 10.499l-3 3-1.5-1.5"/><path class="ava" d="M9.5 21.5h-8a1 1 0 01-1-1v-17a1 1 0 011-1h12a1 1 0 011 1v13z"/><path class="ava" d="M9.5 21.499v-5h5M17.498 8.499h4.001v10.5h-4.001zM21.5 1.5a2 2 0 012 2v8M19.5 20.999v2.5M17.499.499h4v8h-4z"/><path class="ava" d="M18.5 18.999h2v2h-2zM8.5 7.499H12M8.5 12.499H12"/></svg><svg viewBox="0 0 24 24" width="24" height="24" id="download-bottom" x="122" y="72" xmlns="http://www.w3.org/2000/svg"><defs><style>.awa{fill:none;stroke:currentColor;stroke-linecap:round;stroke-linejoin:round;stroke-width:1.5px}</style></defs><path class="awa" d="M12.001 3.75v12M7.501 11.25l4.5 4.5 4.5-4.5M23.251 15.75v1.5a3 3 0 01-3 3h-16.5a3 3 0 01-3-3v-1.5"/></svg><svg id="dup-icon-01" data-name="Layer 1" viewBox="0 0 24 24" width="24" height="24" x="122" y="96" xmlns="http://www.w3.org/2000/svg"><defs><style>.axcls-1{fill:#979796}</style></defs><path class="axcls-1" d="M22 8h-6V2a2 2 0 00-2-2H2a2 2 0 00-2 2v12a2 2 0 002 2h6v6a2 2 0 002 2h12a2 2 0 002-2V10a2 2 0 00-2-2zM2 14.5h-.09a.5.5 0 01-.41-.5V1.91A.5.5 0 012 1.5h12.09a.5.5 0 01.41.5v6H10a2 2 0 00-2 2v4.5zM22.5 22v.09a.5.5 0 01-.49.41H9.91a.5.5 0 01-.41-.5V9.91a.5.5 0 01.5-.41h12.09a.5.5 0 01.41.49z"/></svg><svg viewBox="0 0 24 24" width="24" height="24" id="filter-1" y="120" xmlns="http://www.w3.org/2000/svg"><defs><style>.aya{fill:none;stroke:currentColor;stroke-linecap:round;stroke-linejoin:round}</style></defs><path class="aya" d="M21.8 2.1A1 1 0 0021 .5H2.981a1 1 0 00-.8 1.6l7.808 10.491V22.5a1 1 0 001.6.8l2-1.5a1 1 0 00.4-.8v-8.41z"/></svg><svg viewBox="0 0 24 24" width="24" height="24" id="flash" x="24" y="120" xmlns="http://www.w3.org/2000/svg"><defs><style>.aza{fill:none;stroke:currentColor;stroke-linecap:round;stroke-linejoin:round}</style></defs><path class="aza" d="M8 23.498l3-11H7l3-12h8l-5 8h5l-10 15z"/></svg><svg viewBox="0 0 24 24" width="24" height="24" id="folder-bookmark" x="48" y="120" xmlns="http://www.w3.org/2000/svg"><defs><style>.baa{fill:none;stroke:currentColor;stroke-linecap:round;stroke-linejoin:round}</style></defs><path class="baa" d="M15.5 7a1 1 0 00-1 1v8.793a.5.5 0 00.854.353L17 15.5l1.646 1.646a.5.5 0 00.854-.353V8a1 1 0 00-1-1z"/><path class="baa" d="M14.5 9h-4.3a1 1 0 01-.981-.8l-.278-1.4A1 1 0 007.96 6H1.5a1 1 0 00-.981 1.2l2.6 13a1 1 0 00.981.8H21a1 1 0 00.981-.8l1.5-10A1 1 0 0022.5 9h-3M2.5 4a1 1 0 011-1h18a1 1 0 011 1v3"/></svg><svg viewBox="0 0 24 24" width="24" height="24" id="gauge-dashboard-1" x="72" y="120" xmlns="http://www.w3.org/2000/svg"><defs><style>.bba{fill:none;stroke:currentColor;stroke-linecap:round;stroke-linejoin:round}</style></defs><circle class="bba" cx="12" cy="12" r="11.5"/><path class="bba" d="M13.414 13.414a2 2 0 01-2.828-2.828c.781-.781 8.132-5.3 8.132-5.3s-4.518 7.347-5.304 8.128zM3.5 12H5M5.99 5.99l1.06 1.06M12 3.5V5M20.5 12H19M20.633 19.6A14.708 14.708 0 0012 17a14.708 14.708 0 00-8.633 2.6"/></svg><svg viewBox="0 0 24 24" width="24" height="24" id="graph-stats-circle" x="96" y="120" xmlns="http://www.w3.org/2000/svg"><defs><style>.bca{fill:none;stroke:currentColor;stroke-linecap:round;stroke-linejoin:round}</style></defs><circle class="bca" cx="12" cy="12.001" r="11.5"/><path class="bca" d="M2.5 13.5h2.374c2.206 0 2.015-1.867 3.633-9.632a.5.5 0 01.979 0L12.548 18.8a.5.5 0 00.976.017l2.109-8.787a.5.5 0 01.951-.069c.743 1.858 1.04 3.541 2.77 3.541H21.5"/></svg><svg viewBox="0 0 24 24" width="24" height="24" id="layout-dashboard" x="120" y="120" xmlns="http://www.w3.org/2000/svg"><defs><style>.bda{fill:none;stroke:currentColor;stroke-linecap:round;stroke-linejoin:round}</style></defs><rect class="bda" x=".5" y="16.5" width="10" height="7" rx="1" ry="1"/><rect class="bda" x="13.5" y="10.5" width="10" height="13" rx="1" ry="1" transform="rotate(180 18.5 17)"/><rect class="bda" x="13.5" y=".5" width="10" height="7" rx="1" ry="1" transform="rotate(180 18.5 4)"/><rect class="bda" x=".5" y=".5" width="10" height="13" rx="1" ry="1"/></svg><svg viewBox="0 0 24 24" width="24" height="24" id="navigation-menu-horizontal" x="146" xmlns="http://www.w3.org/2000/svg"><defs><style>.bea{fill:none;stroke:currentColor;stroke-linecap:round;stroke-linejoin:round;stroke-width:1.5px}</style></defs><circle class="bea" cx="3.375" cy="12.023" r="2.625"/><circle class="bea" cx="20.625" cy="12.023" r="2.625"/><circle class="bea" cx="12" cy="12.023" r="2.625"/></svg><svg viewBox="0 0 24 24" width="24" height="24" id="pin" x="146" y="24" xmlns="http://www.w3.org/2000/svg"><defs><style>.bfa{fill:none;stroke:currentColor;stroke-linecap:round;stroke-linejoin:round}</style></defs><path class="bfa" d="M9.914 14.085L.5 23.499M21.414 8.585a.707.707 0 001 0l.793-.793a1 1 0 000-1.414L17.621.792a1 1 0 00-1.414 0l-.793.793a.707.707 0 000 1 .707.707 0 010 1l-4.207 4.207a1 1 0 01-.707.293H7.328a1 1 0 00-.707.293l-.5.5a1 1 0 000 1.414l7.586 7.586a1 1 0 001.414 0l.5-.5a1 1 0 00.293-.707V13.5a1 1 0 01.293-.707l4.207-4.207a.707.707 0 011-.001z"/></svg><svg viewBox="0 0 24 24" width="24" height="24" id="question-circle" x="146" y="48" xmlns="http://www.w3.org/2000/svg"><defs><style>.bga{fill:none;stroke:currentColor;stroke-linecap:round;stroke-linejoin:round}</style></defs><circle class="bga" cx="12" cy="12.001" r="11"/><path class="bga" d="M12 17a.25.25 0 10.25.25A.25.25 0 0012 17M9 10.005a3 3 0 114.2 2.75 2 2 0 00-1.2 1.833V15"/></svg><svg viewBox="0 0 24 24" width="24" height="24" id="remove" x="146" y="72" xmlns="http://www.w3.org/2000/svg"><defs><style>.bha{fill:none;stroke:currentColor;stroke-linecap:round;stroke-linejoin:round}</style></defs><path class="bha" d="M23.5.5l-23 23M23.5 23.5L.5.5"/></svg><svg viewBox="0 0 24 24" width="24" height="24" id="scissors" x="146" y="96" xmlns="http://www.w3.org/2000/svg"><defs><style>.bia{fill:none;stroke:currentColor;stroke-linecap:round;stroke-linejoin:round}</style></defs><circle class="bia" cx="20" cy="17.999" r="3.5"/><circle class="bia" cx="20" cy="5.999" r="3.5"/><path class="bia" d="M16.5 18a11 11 0 00-11-11c-1.125 0-4.164.37-5 1l14.221 4L.5 16c.836.628 3.875 1 5 1a11 11 0 0011-11"/></svg><svg viewBox="0 0 24 24" width="24" height="24" id="search-1" x="146" y="120" xmlns="http://www.w3.org/2000/svg"><defs><style>.bja{fill:none;stroke:currentColor;stroke-linecap:round;stroke-linejoin:round}</style></defs><circle class="bja" cx="10.5" cy="10.5" r="10"/><path class="bja" d="M23.5 23.5l-5.929-5.929"/></svg><svg viewBox="0 0 24 24" width="24" height="24" id="view-1" x="48" y="96" xmlns="http://www.w3.org/2000/svg"><defs><style>.bka{fill:none;stroke:currentColor;stroke-linecap:round;stroke-linejoin:round}</style></defs><circle class="bka" cx="12" cy="12" r="3.5"/><path class="bka" d="M23.376 11.672C22.213 10.352 17.562 5.5 12 5.5S1.787 10.352.624 11.672a.5.5 0 000 .656C1.787 13.648 6.438 18.5 12 18.5s10.213-4.852 11.376-6.172a.5.5 0 000-.656z"/></svg><svg viewBox="0 0 24 24" width="24" height="24" id="view-off" y="72" xmlns="http://www.w3.org/2000/svg"><defs><style>.bla{fill:none;stroke:currentColor;stroke-linecap:round;stroke-linejoin:round}</style></defs><path class="bla" d="M19.518 8.288A22.111 22.111 0 0123.5 12s-5.148 6.5-11.5 6.5a10.3 10.3 0 01-3-.464M4.468 15.7A22.105 22.105 0 01.5 12S5.648 5.5 12 5.5a10.106 10.106 0 012.5.325M8 12a4 4 0 014-4M16 12a4 4 0 01-4 4M21.75 2.25l-19.5 19.5"/></svg></svg>